HIERARCHY
ROOT root
{
	OFFSET 0.000000 0.000000 0.000000
	CHANNELS 6 Xposition Yposition Zposition Zrotation Yrotation Xrotation
	JOINT lhip
	{
		OFFSET 0.058581 -0.082280 -0.017664
		CHANNELS 3 Zrotation Yrotation Xrotation
		JOINT lknee
		{
			OFFSET 0.043451 -0.386469 0.008037
			CHANNELS 3 Zrotation Yrotation Xrotation
			JOINT lankle
			{
				OFFSET -0.014790 -0.426874 -0.037428
				CHANNELS 3 Zrotation Yrotation Xrotation
				JOINT ltoe
				{
					OFFSET 0.041054 -0.060286 0.122042
					CHANNELS 3 Zrotation Yrotation Xrotation
					End Site
					{
						OFFSET 0.000000 0.000000 0.000000
					}
				}
			}
		}
	}
	JOINT rhip
	{
		OFFSET -0.060310 -0.090513 -0.013543
		CHANNELS 3 Zrotation Yrotation Xrotation
		JOINT rknee
		{
			OFFSET -0.043257 -0.383688 -0.004843
			CHANNELS 3 Zrotation Yrotation Xrotation
			JOINT rankle
			{
				OFFSET 0.019056 -0.420046 -0.034562
				CHANNELS 3 Zrotation Yrotation Xrotation
				JOINT rtoe
				{
					OFFSET -0.034840 -0.062106 0.130323
					CHANNELS 3 Zrotation Yrotation Xrotation
					End Site
					{
						OFFSET 0.000000 0.000000 0.000000
					}
				}
			}
		}
	}
	JOINT lowerback
	{
		OFFSET 0.004439 0.124404 -0.038385
		CHANNELS 3 Zrotation Yrotation Xrotation
		JOINT upperback
		{
			OFFSET 0.004488 0.137956 0.026820
			CHANNELS 3 Zrotation Yrotation Xrotation
			JOINT chest
			{
				OFFSET -0.002265 0.056032 0.002855
				CHANNELS 3 Zrotation Yrotation Xrotation
				JOINT lowerneck
				{
					OFFSET -0.013390 0.211636 -0.033468
					CHANNELS 3 Zrotation Yrotation Xrotation
					JOINT upperneck
					{
						OFFSET 0.010113 0.088937 0.050410
						CHANNELS 3 Zrotation Yrotation Xrotation
						End Site
						{
							OFFSET 0.000000 0.000000 0.000000
						}
					}
				}
				JOINT lclavicle
				{
					OFFSET 0.071702 0.114000 -0.018898
					CHANNELS 3 Zrotation Yrotation Xrotation
					JOINT lshoulder
					{
						OFFSET 0.122921 0.045205 -0.019046
						CHANNELS 3 Zrotation Yrotation Xrotation
						JOINT lelbow
						{
							OFFSET 0.255332 -0.015649 -0.022946
							CHANNELS 3 Zrotation Yrotation Xrotation
							JOINT lwrist
							{
								OFFSET 0.265709 0.012698 -0.007375
								CHANNELS 3 Zrotation Yrotation Xrotation
								End Site
								{
									OFFSET 0.000000 0.000000 0.000000
								}
							}
						}
					}
				}
				JOINT rclavicle
				{
					OFFSET -0.082954 0.112472 -0.023707
					CHANNELS 3 Zrotation Yrotation Xrotation
					JOINT rshoulder
					{
						OFFSET -0.113228 0.046853 -0.008472
						CHANNELS 3 Zrotation Yrotation Xrotation
						JOINT relbow
						{
							OFFSET -0.260127 -0.014369 -0.031269
							CHANNELS 3 Zrotation Yrotation Xrotation
							JOINT rwrist
							{
								OFFSET -0.269108 0.006794 -0.006027
								CHANNELS 3 Zrotation Yrotation Xrotation
								End Site
								{
									OFFSET 0.000000 0.000000 0.000000
								}
							}
						}
					}
				}
			}
		}
	}
}
MOTION
Frames: 17
Frame Time: 0.033333
-0.963524 0.481994 0.980266 92.868785 4.664154 113.755783 -3.423537 5.911547 -28.676781 5.125552 27.934205 47.078695 10.353753 23.121571 37.506953 0.000000 -0.000000 0.000000 10.526582 6.861737 -39.917147 -0.410365 -9.758331 6.593364 -14.300823 -22.247541 3.871859 0.000000 -0.000000 0.000000 3.924884 2.262124 19.228992 12.378387 -1.302783 -12.310126 12.536129 -1.467929 -4.436473 -2.202506 7.571811 -24.795174 2.740490 4.589091 -10.079663 17.836498 -35.730040 -21.609844 -52.622217 -69.599301 13.573978 14.519670 -5.109483 -0.845586 -23.541914 24.156395 0.100193 -0.566553 25.746685 -19.994134 48.551673 51.275170 6.873331 -7.774019 -6.773199 -21.486257 13.031140 -24.046589 1.186368 
-0.958418 0.479009 0.980994 92.423634 4.937560 112.076382 -3.441984 5.379572 -27.837973 6.379221 28.722794 49.254774 11.034416 24.101118 32.437901 0.000000 -0.000000 0.000000 10.061784 7.482117 -39.959351 0.015013 -11.020760 10.924332 -13.495689 -22.790172 0.808773 0.000000 -0.000000 0.000000 2.569442 2.515374 18.223518 13.428468 -2.294732 -8.915719 12.727561 -1.692053 -4.980728 -2.532023 9.594287 -23.107762 3.373957 3.285793 -9.793594 20.511159 -38.579592 -22.798118 -68.962045 -72.378497 28.884804 14.106891 -3.825065 -1.271043 -19.890441 23.121667 0.683790 0.528646 29.593276 -19.690709 61.567842 50.855611 15.597807 -7.622494 -6.434432 -31.842883 14.235630 -20.289645 -13.373138 
-0.952359 0.475278 0.980918 92.301836 5.481113 109.833727 -3.223824 5.520946 -26.905171 6.866707 28.763852 52.683793 11.632453 26.903965 21.238172 0.000000 -0.000000 0.000000 10.114513 7.284818 -39.332451 1.004327 -11.921679 15.291020 -12.729587 -23.120018 -2.592764 0.000000 -0.000000 0.000000 1.473632 2.647709 17.163829 14.397973 -3.330595 -5.907523 13.012603 -1.565273 -4.690600 -2.674477 11.857498 -20.618976 3.642875 1.837258 -9.699440 22.314117 -40.695503 -23.112014 -83.828968 -74.709304 41.826194 11.536154 -4.614152 -4.726612 -21.429281 22.793457 -0.441070 4.213404 34.740011 -16.743095 65.907535 52.379539 14.810357 -4.898420 -9.088100 -45.070641 17.164216 -19.192522 -23.092544 
-0.944637 0.470139 0.976520 92.397336 5.757061 107.433018 -3.215010 5.943231 -26.508328 6.002109 28.069590 55.916396 10.414267 28.829685 6.400031 0.000000 -0.000000 0.000000 10.078605 7.174859 -38.697079 1.871489 -12.600116 19.611452 -12.482123 -24.607657 -5.714264 0.000000 -0.000000 0.000000 0.789374 2.508746 17.221896 14.901128 -3.855243 -5.064782 12.518564 -1.879150 -3.977555 -2.932949 12.182482 -17.203989 5.059452 1.479039 -9.707578 21.767316 -41.469461 -22.268122 -103.470059 -74.794489 60.345095 10.650903 -5.017022 -6.954300 -26.554918 21.767817 -7.030141 5.242255 35.449292 -15.989223 77.049573 49.499233 21.398625 -3.916530 -5.097227 -53.731007 24.122849 -13.438625 -46.940017 
-0.938123 0.463922 0.969324 92.549565 6.078944 104.294699 -3.056867 6.276226 -25.348712 4.536785 27.678572 58.077348 7.835454 29.379626 -7.399314 0.000000 -0.000000 0.000000 10.377160 7.143004 -37.354704 2.001190 -13.644708 24.202922 -11.569603 -25.626370 -9.386643 0.000000 -0.000000 0.000000 0.047475 2.351952 16.485765 15.165993 -4.707241 -0.594952 11.917389 -1.139999 -4.460388 -1.259871 12.585037 -14.191422 3.940354 -0.091858 -9.857212 23.518380 -40.738843 -23.145461 -104.207959 -73.342014 62.679059 11.613587 -13.026829 -1.580909 -35.838566 18.675748 -10.977153 4.866208 39.001222 -15.147652 81.674073 48.604802 27.442803 -4.136297 -1.801837 -51.010986 27.882602 -9.496763 -53.797128 
-0.932321 0.457336 0.961302 94.055458 6.076949 102.123626 -2.835835 5.952589 -25.078683 2.690593 27.804125 58.986401 3.676716 28.814422 -19.644485 0.000000 -0.000000 0.000000 10.243224 6.756378 -37.059383 1.811334 -14.817360 28.964869 -9.974193 -26.515459 -12.404190 0.000000 -0.000000 0.000000 0.312644 1.684240 17.766950 14.513923 -3.747071 -3.562903 11.100738 -1.909222 -1.829348 -0.141301 12.142965 -8.388340 4.341810 -1.055646 -12.491404 24.583692 -37.419424 -22.684425 -99.723906 -71.323274 59.715386 12.233221 -30.362187 8.917707 -42.635162 18.083617 -4.980279 3.726161 38.184956 -14.567287 85.639999 46.742151 34.959876 -6.458134 7.835446 -28.050031 33.362869 -8.454635 -46.169456 
-0.927246 0.449766 0.953114 96.060109 5.710891 99.664169 -2.691102 6.138021 -23.705468 2.309308 28.955468 58.773941 2.433603 29.530133 -24.712572 0.000000 -0.000000 0.000000 10.018845 6.425689 -36.214774 0.615006 -16.694892 33.157131 -8.161034 -27.201845 -15.949041 0.000000 -0.000000 0.000000 0.104919 1.336725 17.640914 14.120432 -3.243087 -2.275018 10.200752 -1.647985 -1.181116 0.968024 11.648291 -3.743498 4.335454 -2.494731 -14.741558 22.646822 -32.961207 -20.422852 -81.668909 -70.813772 45.281429 5.188061 -57.434378 29.521409 -41.333788 21.954234 15.830767 5.945034 35.428217 -11.913096 80.172076 44.357281 36.611038 -7.446948 29.846504 3.648035 33.642018 -12.897118 -22.133554 
-0.923079 0.442922 0.946535 99.878112 5.094562 98.208958 -3.076315 6.068487 -22.726484 2.226805 28.910035 57.402225 0.206533 29.195179 -28.366593 0.000000 -0.000000 0.000000 9.478496 4.445878 -35.847439 -0.728188 -19.095471 36.519302 -6.379344 -26.790927 -19.216877 0.000000 -0.000000 0.000000 0.376373 1.005478 16.163824 13.903924 -2.826823 0.078412 9.564415 -1.285104 -1.122927 2.088912 9.916880 -1.742707 3.150342 -4.526905 -16.046449 19.071948 -26.490252 -18.544565 -63.606311 -68.408669 30.364579 -49.673446 -81.189532 96.198771 -28.481498 22.197370 41.975320 7.781611 30.699099 -10.664662 68.090894 43.240410 33.056550 4.007929 54.319876 37.971271 21.046213 -12.546479 6.192485 
-0.921852 0.436449 0.942932 104.873806 4.331192 99.189353 -4.288155 5.836204 -24.087474 3.501296 28.165719 56.510995 -0.247515 32.955252 -29.743216 0.000000 -0.000000 0.000000 8.692580 2.237048 -37.645467 -1.142920 -20.660184 38.195372 -5.229352 -27.802265 -21.014764 0.000000 -0.000000 0.000000 1.489905 0.561384 14.395057 12.985458 -1.879864 -3.316942 8.986045 -0.825429 2.208957 1.811909 5.018540 -1.215762 3.592715 -5.086149 -16.955543 15.932768 -21.564988 -17.629057 -45.039329 -61.696755 15.203373 -142.677082 -71.074519 -171.872466 -5.288411 14.143688 52.302947 8.257422 25.761977 -11.867787 52.549066 40.232961 24.216516 46.029577 69.603941 87.725872 0.750328 -8.802168 27.937648 
-0.915377 0.428525 0.947199 108.663379 2.972549 99.596406 -5.852460 7.034128 -22.731939 2.967484 26.594327 52.922842 0.738823 34.087049 -28.748270 0.000000 -0.000000 0.000000 8.419228 0.406587 -37.199229 -1.336320 -20.579265 36.585873 -4.901705 -29.553003 -20.822733 0.000000 -0.000000 0.000000 0.470499 1.814604 12.461685 12.649183 -0.739768 -3.188996 8.998306 0.217543 2.886135 2.003602 -0.529338 -0.630471 5.383901 -5.103744 -18.957225 10.691034 -16.383200 -16.010133 -28.392791 -52.773452 5.853542 -152.272013 -60.415250 -168.959232 15.110770 4.754835 49.357090 9.157532 21.273712 -13.605460 38.031669 34.820124 17.546386 93.655692 69.191263 128.718920 -13.910775 -1.278868 28.666128 
-0.912925 0.421810 0.961554 113.785432 1.561790 100.849824 -7.670509 5.712923 -22.138615 -0.378284 21.962019 46.430898 2.300029 37.450492 -26.693703 0.000000 -0.000000 0.000000 8.237396 -0.950441 -36.634982 -1.376408 -20.147872 31.890113 -5.235326 -32.431989 -18.396920 0.000000 -0.000000 0.000000 0.446916 3.566541 10.348908 11.984549 0.542696 -2.275814 9.193106 0.449774 2.947190 3.090874 -6.465580 -3.628880 7.251414 -6.345485 -19.633527 4.784902 -12.645412 -15.729094 -13.036600 -43.053774 -1.556170 -150.674284 -54.527701 -174.125111 29.289840 -8.255177 47.697415 8.335137 16.998090 -15.298496 26.385608 26.014319 11.701783 114.904080 63.821521 142.352563 -28.643334 9.961752 20.924715 
-0.905246 0.414272 0.984500 118.992760 0.372758 103.003855 -8.284282 2.878596 -21.553144 -2.865280 17.136535 39.706442 2.394324 38.661485 -23.396330 0.000000 -0.000000 0.000000 9.276189 -1.033807 -35.068269 -2.776909 -19.061743 24.181870 -5.192265 -34.499045 -14.131242 0.000000 -0.000000 0.000000 0.478304 4.501918 9.183166 11.021438 1.795823 -4.253317 9.322671 0.631620 2.543460 4.268799 -10.729674 -4.805100 9.567470 -7.988874 -20.058502 -0.165284 -7.774409 -15.253635 -5.442462 -33.387507 -2.349656 -150.498351 -52.972790 -174.557486 37.408539 -21.726333 44.466992 8.302038 12.676470 -13.681625 18.778372 17.071170 8.842631 118.237905 60.876796 145.497156 -44.594085 24.829294 17.947823 
-0.898701 0.409134 1.010694 125.515066 -1.965537 104.934766 -9.274203 -0.058987 -19.496668 -4.208133 12.534497 32.136869 2.908684 36.610211 -18.561502 0.000000 -0.000000 0.000000 8.420742 -2.209666 -33.307420 -3.450354 -14.484336 18.349553 -4.402698 -33.446561 -8.378510 0.000000 -0.000000 0.000000 -0.373795 5.023258 7.335176 10.006891 2.471696 -4.444872 9.084823 0.833889 0.798930 7.107009 -14.902488 -7.280122 10.662372 -10.525743 -19.536896 -3.204745 -4.190558 -14.020357 0.175401 -24.960881 -2.793020 -149.813951 -55.193204 -174.319729 41.817093 -28.671540 43.323840 8.600035 8.039621 -11.298247 13.752807 7.896419 7.131476 115.745578 61.331197 146.761093 -51.448529 30.430593 19.047206 
-0.891338 0.405556 1.035089 133.258102 -3.433434 106.929502 -9.025456 -2.221391 -17.582092 -4.754104 6.553038 24.521010 3.497340 33.457522 -12.669264 0.000000 -0.000000 0.000000 6.670107 -1.584283 -30.826913 -4.100491 -10.590377 12.190412 -4.399574 -30.189894 -0.490447 0.000000 -0.000000 0.000000 0.321843 4.766049 6.075998 9.730218 2.890523 -5.539122 8.204133 1.266614 -1.425291 7.783699 -20.520162 -7.354669 12.523253 -11.262918 -21.141644 -6.944658 1.061559 -12.946173 3.760101 -19.908807 -1.948041 -146.666805 -58.889380 -177.076106 42.072180 -29.394684 43.776636 8.792177 0.796486 -11.227326 11.762976 2.262013 5.261468 103.677781 61.785187 134.600636 -48.078972 29.539454 20.768925 
-0.887422 0.403876 1.055143 140.428076 -4.342772 109.154387 -8.839791 -2.247605 -17.334111 -3.527333 3.204149 17.866278 4.315560 28.543020 -4.726882 0.000000 -0.000000 0.000000 4.818991 -1.483678 -29.170392 -4.751202 -9.363766 6.172500 -2.717044 -25.663351 7.974437 0.000000 -0.000000 0.000000 0.629918 4.897256 3.978177 11.224043 3.343963 -4.678075 7.839789 -0.344559 -4.691355 9.541463 -22.279790 -8.458643 11.004128 -13.512403 -22.809410 -8.719193 8.341406 -16.422266 1.609861 -14.587403 4.004977 -144.428521 -63.140958 -178.326734 45.301247 -33.140246 36.821803 11.230661 -5.791195 -18.150584 7.229405 3.693941 12.278552 82.363538 64.837495 113.155640 -50.088167 31.067741 14.527486 
-0.888159 0.401534 1.071859 146.389828 -5.456691 111.881959 -9.348499 -3.589855 -19.553007 -1.863435 4.973442 13.537776 6.491524 26.646102 4.038648 0.000000 -0.000000 0.000000 2.715308 -2.667730 -29.327701 -4.413902 -7.270479 2.416739 -0.960624 -21.898229 16.124068 0.000000 -0.000000 0.000000 0.688131 5.123269 2.285313 11.697533 3.943999 -6.355238 7.292499 -0.415943 -5.876024 11.944840 -25.104419 -11.741635 10.496709 -15.052566 -22.938815 -8.438632 15.733772 -16.590769 -0.758334 -11.122577 5.777368 -143.410042 -66.989110 -177.621325 44.543187 -32.228269 36.356083 11.486145 -12.725929 -19.115629 5.983910 5.110069 11.494941 61.200329 64.339093 93.748182 -49.333782 32.360374 19.335984 
-0.888526 0.398908 1.083372 152.003405 -6.078663 113.019229 -10.166655 -2.804762 -20.305982 -0.524143 9.505928 8.918833 7.381172 26.278524 11.054685 0.000000 -0.000000 0.000000 1.626769 -4.095642 -28.348306 -4.397001 -5.642491 -0.447079 1.520010 -19.729321 21.929379 0.000000 -0.000000 0.000000 0.904240 4.989708 1.010475 11.998056 4.302543 -6.743815 7.314018 -0.071997 -6.693256 14.196102 -26.797359 -12.772121 11.087524 -16.304594 -25.693211 -9.171009 20.824713 -17.657239 -0.055034 -6.509904 6.785244 -139.452086 -71.179770 -179.581132 44.100179 -33.371547 35.347873 10.519194 -15.635309 -17.087593 4.703191 4.608720 10.097578 40.710200 61.732300 73.706029 -49.495052 33.687366 20.896005 
